<svg width="40" height="40" viewBox="0 0 40 40" fill="none" xmlns="http://www.w3.org/2000/svg">
<rect width="40" height="40" rx="20" fill="#FF3E79"/>
<path fill-rule="evenodd" clip-rule="evenodd" d="M12.0001 11C12.0001 10.4477 12.4478 9.99999 13.0001 9.99999H27.0001C27.5523 9.99999 28.0001 10.4477 28.0001 11V28.5C27.1717 28.5 26.5001 29.1715 26.5001 29.9999H25.5001C25.5 29.1715 24.8284 28.5 24.0001 28.5C23.1717 28.5 22.5001 29.1715 22.5001 29.9999H21.5001C21.5 29.1715 20.8284 28.5 20.0001 28.5C19.1717 28.5 18.5001 29.1715 18.5001 29.9999H17.5001C17.5 29.1715 16.8284 28.5 16.0001 28.5C15.1717 28.5 14.5001 29.1715 14.5001 29.9999H13.5001C13.5 29.1715 12.8284 28.5 12.0001 28.5V11ZM21.4164 21.7884C20.5536 22.3443 19.4704 22.5936 18.3297 22.3827C16.5275 22.0472 15.0896 20.5326 14.8595 18.7114C14.4952 15.8261 16.9493 13.4201 19.8538 13.8802C21.656 14.1677 23.1035 15.6439 23.4007 17.4365C23.5828 18.5484 23.324 19.5741 22.7872 20.4272L24.8961 22.5265C25.2699 22.9003 25.2699 23.5138 24.8961 23.8876C24.5126 24.2711 23.8991 24.2711 23.5253 23.8972L21.4164 21.7884ZM16.7059 18.0588C16.7059 16.7599 17.7601 15.7058 19.0589 15.7058C20.3577 15.7058 21.4118 16.7599 21.4118 18.0588C21.4118 19.3576 20.3577 20.4117 19.0589 20.4117C17.7601 20.4117 16.7059 19.3576 16.7059 18.0588Z" fill="white"/>
</svg>
